<mxfile host="app.diagrams.net" agent="Mozilla/5.0 (Macintosh; Intel Mac OS X 10_15_7) AppleWebKit/537.36 (KHTML, like Gecko) Chrome/136.0.0.0 Safari/537.36" version="27.0.9" pages="2">
  <diagram id="6I0OCvxSQrVGMHxT2VVA" name="Page-1">
    <mxGraphModel dx="514" dy="332" grid="0" gridSize="10" guides="1" tooltips="1" connect="1" arrows="1" fold="1" page="1" pageScale="1" pageWidth="850" pageHeight="1100" math="0" shadow="0">
      <root>
        <mxCell id="0" />
        <mxCell id="1" parent="0" />
        <mxCell id="UN--M1qzdoFLLi-wLeMt-39" value="" style="rounded=0;whiteSpace=wrap;html=1;fillColor=none;" parent="1" vertex="1">
          <mxGeometry x="68.5" y="410" width="141" height="160" as="geometry" />
        </mxCell>
        <mxCell id="UN--M1qzdoFLLi-wLeMt-1" value="已知结构&lt;div&gt;测量静态参数&lt;/div&gt;" style="rounded=0;whiteSpace=wrap;html=1;fillColor=#f5f5f5;strokeColor=#666666;fontColor=#333333;" parent="1" vertex="1">
          <mxGeometry x="79.5" y="210" width="90" height="42" as="geometry" />
        </mxCell>
        <mxCell id="UN--M1qzdoFLLi-wLeMt-2" value="已知结构&lt;div&gt;测量动态策略&lt;/div&gt;" style="rounded=0;whiteSpace=wrap;html=1;fillColor=#f5f5f5;strokeColor=#666666;fontColor=#333333;" parent="1" vertex="1">
          <mxGeometry x="188.5" y="210" width="91" height="42" as="geometry" />
        </mxCell>
        <mxCell id="UN--M1qzdoFLLi-wLeMt-3" value="未知结构&lt;div&gt;逆向排除/证实&lt;/div&gt;" style="rounded=0;whiteSpace=wrap;html=1;fillColor=#f5f5f5;strokeColor=#666666;fontColor=#333333;" parent="1" vertex="1">
          <mxGeometry x="296" y="210" width="93.5" height="41" as="geometry" />
        </mxCell>
        <mxCell id="UN--M1qzdoFLLi-wLeMt-5" value="&lt;font style=&quot;font-size: 14px;&quot;&gt;难度、工作量递增，成功率递减&lt;/font&gt;" style="text;html=1;align=center;verticalAlign=middle;whiteSpace=wrap;rounded=0;" parent="1" vertex="1">
          <mxGeometry x="98.5" y="306" width="280" height="30" as="geometry" />
        </mxCell>
        <mxCell id="UN--M1qzdoFLLi-wLeMt-10" style="edgeStyle=orthogonalEdgeStyle;rounded=0;orthogonalLoop=1;jettySize=auto;html=1;exitX=1;exitY=0.5;exitDx=0;exitDy=0;" parent="1" source="UN--M1qzdoFLLi-wLeMt-8" target="UN--M1qzdoFLLi-wLeMt-9" edge="1">
          <mxGeometry relative="1" as="geometry" />
        </mxCell>
        <mxCell id="UN--M1qzdoFLLi-wLeMt-8" value="现成工具&lt;br&gt;Microbenchmark等" style="rounded=0;whiteSpace=wrap;html=1;fillColor=#fff2cc;strokeColor=#d6b656;" parent="1" vertex="1">
          <mxGeometry x="79.5" y="262" width="127" height="42" as="geometry" />
        </mxCell>
        <mxCell id="UN--M1qzdoFLLi-wLeMt-9" value="根据优化机制&lt;div&gt;设计测例&lt;/div&gt;" style="rounded=0;whiteSpace=wrap;html=1;fillColor=#fff2cc;strokeColor=#d6b656;" parent="1" vertex="1">
          <mxGeometry x="309.5" y="262" width="80" height="42" as="geometry" />
        </mxCell>
        <mxCell id="UN--M1qzdoFLLi-wLeMt-11" value="Fetch" style="rounded=0;whiteSpace=wrap;html=1;" parent="1" vertex="1">
          <mxGeometry x="439.5" y="210" width="50" height="20" as="geometry" />
        </mxCell>
        <mxCell id="UN--M1qzdoFLLi-wLeMt-12" value="Decode" style="rounded=0;whiteSpace=wrap;html=1;" parent="1" vertex="1">
          <mxGeometry x="489.5" y="210" width="50" height="20" as="geometry" />
        </mxCell>
        <mxCell id="UN--M1qzdoFLLi-wLeMt-13" value="Rename" style="rounded=0;whiteSpace=wrap;html=1;" parent="1" vertex="1">
          <mxGeometry x="539.5" y="210" width="50" height="20" as="geometry" />
        </mxCell>
        <mxCell id="UN--M1qzdoFLLi-wLeMt-14" value="Dispatch" style="rounded=0;whiteSpace=wrap;html=1;" parent="1" vertex="1">
          <mxGeometry x="589.5" y="210" width="50" height="20" as="geometry" />
        </mxCell>
        <mxCell id="UN--M1qzdoFLLi-wLeMt-16" value="Issue" style="rounded=0;whiteSpace=wrap;html=1;" parent="1" vertex="1">
          <mxGeometry x="639.5" y="210" width="40" height="20" as="geometry" />
        </mxCell>
        <mxCell id="UN--M1qzdoFLLi-wLeMt-17" value="Execution" style="rounded=0;whiteSpace=wrap;html=1;fillColor=#fff2cc;strokeColor=#d6b656;" parent="1" vertex="1">
          <mxGeometry x="678.5" y="180" width="70" height="20" as="geometry" />
        </mxCell>
        <mxCell id="UN--M1qzdoFLLi-wLeMt-18" value="Address Generation" style="rounded=0;whiteSpace=wrap;html=1;" parent="1" vertex="1">
          <mxGeometry x="678.5" y="200" width="70" height="30" as="geometry" />
        </mxCell>
        <mxCell id="UN--M1qzdoFLLi-wLeMt-19" value="Cache&lt;div&gt;Access&lt;/div&gt;" style="rounded=0;whiteSpace=wrap;html=1;" parent="1" vertex="1">
          <mxGeometry x="678.5" y="230" width="70" height="30" as="geometry" />
        </mxCell>
        <mxCell id="UN--M1qzdoFLLi-wLeMt-20" value="Write Back" style="rounded=0;whiteSpace=wrap;html=1;" parent="1" vertex="1">
          <mxGeometry x="748.5" y="210" width="61" height="20" as="geometry" />
        </mxCell>
        <mxCell id="UN--M1qzdoFLLi-wLeMt-21" value="Validation" style="rounded=0;whiteSpace=wrap;html=1;" parent="1" vertex="1">
          <mxGeometry x="809.5" y="210" width="60" height="20" as="geometry" />
        </mxCell>
        <mxCell id="UN--M1qzdoFLLi-wLeMt-22" value="Commit" style="rounded=0;whiteSpace=wrap;html=1;" parent="1" vertex="1">
          <mxGeometry x="869.5" y="210" width="50" height="20" as="geometry" />
        </mxCell>
        <mxCell id="UN--M1qzdoFLLi-wLeMt-23" value="" style="endArrow=none;html=1;rounded=0;" parent="1" edge="1">
          <mxGeometry width="50" height="50" relative="1" as="geometry">
            <mxPoint x="589.5" y="240" as="sourcePoint" />
            <mxPoint x="589.5" y="160" as="targetPoint" />
          </mxGeometry>
        </mxCell>
        <mxCell id="UN--M1qzdoFLLi-wLeMt-24" value="" style="endArrow=none;html=1;rounded=0;" parent="1" edge="1">
          <mxGeometry width="50" height="50" relative="1" as="geometry">
            <mxPoint x="809.5" y="240" as="sourcePoint" />
            <mxPoint x="809.5" y="160" as="targetPoint" />
          </mxGeometry>
        </mxCell>
        <mxCell id="UN--M1qzdoFLLi-wLeMt-25" value="前端-有序" style="text;html=1;align=center;verticalAlign=middle;whiteSpace=wrap;rounded=0;" parent="1" vertex="1">
          <mxGeometry x="484.5" y="150" width="60" height="20" as="geometry" />
        </mxCell>
        <mxCell id="UN--M1qzdoFLLi-wLeMt-26" value="后端-无序" style="text;html=1;align=center;verticalAlign=middle;whiteSpace=wrap;rounded=0;" parent="1" vertex="1">
          <mxGeometry x="669.5" y="150" width="60" height="20" as="geometry" />
        </mxCell>
        <mxCell id="UN--M1qzdoFLLi-wLeMt-27" value="后端-有序" style="text;html=1;align=center;verticalAlign=middle;whiteSpace=wrap;rounded=0;" parent="1" vertex="1">
          <mxGeometry x="839.5" y="150" width="60" height="20" as="geometry" />
        </mxCell>
        <mxCell id="UN--M1qzdoFLLi-wLeMt-28" value="宏指令融合&lt;div&gt;微指令缓存&lt;/div&gt;&lt;div&gt;...&lt;/div&gt;" style="rounded=0;whiteSpace=wrap;html=1;fillColor=#f5f5f5;fontColor=#333333;strokeColor=#666666;" parent="1" vertex="1">
          <mxGeometry x="439.5" y="276" width="150" height="54" as="geometry" />
        </mxCell>
        <mxCell id="UN--M1qzdoFLLi-wLeMt-29" value="内存消歧&lt;div&gt;&lt;span style=&quot;background-color: transparent; color: light-dark(rgb(0, 0, 0), rgb(255, 255, 255));&quot;&gt;访存值预测&lt;/span&gt;&lt;/div&gt;&lt;div&gt;访存地址预测&lt;/div&gt;" style="rounded=0;whiteSpace=wrap;html=1;fillColor=#ffe6cc;strokeColor=#d79b00;" parent="1" vertex="1">
          <mxGeometry x="589.5" y="276" width="90" height="54" as="geometry" />
        </mxCell>
        <mxCell id="UN--M1qzdoFLLi-wLeMt-30" value="缓存命中预测&lt;div&gt;并行缓存访问&lt;/div&gt;&lt;div&gt;内存预取&lt;/div&gt;" style="rounded=0;whiteSpace=wrap;html=1;fillColor=#f5f5f5;fontColor=#333333;strokeColor=#666666;" parent="1" vertex="1">
          <mxGeometry x="679.5" y="276" width="130" height="54" as="geometry" />
        </mxCell>
        <mxCell id="UN--M1qzdoFLLi-wLeMt-31" value="写合并&lt;div&gt;多端存储写入&lt;/div&gt;&lt;div&gt;...&lt;/div&gt;" style="rounded=0;whiteSpace=wrap;html=1;fillColor=#f5f5f5;fontColor=#333333;strokeColor=#666666;" parent="1" vertex="1">
          <mxGeometry x="809.5" y="276" width="110" height="54" as="geometry" />
        </mxCell>
        <mxCell id="UN--M1qzdoFLLi-wLeMt-32" value="&lt;div&gt;Block Start Barrier&lt;/div&gt;某条耗时很长的指令" style="rounded=0;whiteSpace=wrap;html=1;fillColor=#f8cecc;strokeColor=#b85450;" parent="1" vertex="1">
          <mxGeometry x="79.5" y="410" width="120" height="30" as="geometry" />
        </mxCell>
        <mxCell id="UN--M1qzdoFLLi-wLeMt-33" value="&lt;div&gt;Block End Barrier&lt;/div&gt;某条耗时很长的指令" style="rounded=0;whiteSpace=wrap;html=1;fillColor=#f8cecc;strokeColor=#b85450;" parent="1" vertex="1">
          <mxGeometry x="79.5" y="540" width="120" height="30" as="geometry" />
        </mxCell>
        <mxCell id="UN--M1qzdoFLLi-wLeMt-34" value="&lt;div&gt;Test Instr&lt;/div&gt;" style="rounded=0;whiteSpace=wrap;html=1;fillColor=#f5f5f5;strokeColor=#666666;fontColor=#333333;" parent="1" vertex="1">
          <mxGeometry x="132.5" y="440" width="56" height="20" as="geometry" />
        </mxCell>
        <mxCell id="UN--M1qzdoFLLi-wLeMt-35" value="&lt;div&gt;Test Instr&lt;/div&gt;" style="rounded=0;whiteSpace=wrap;html=1;fillColor=#f5f5f5;strokeColor=#666666;fontColor=#333333;" parent="1" vertex="1">
          <mxGeometry x="132.5" y="460" width="56" height="20" as="geometry" />
        </mxCell>
        <mxCell id="UN--M1qzdoFLLi-wLeMt-36" value="&lt;div&gt;Test Instr&lt;/div&gt;" style="rounded=0;whiteSpace=wrap;html=1;fillColor=#f5f5f5;strokeColor=#666666;fontColor=#333333;" parent="1" vertex="1">
          <mxGeometry x="132.5" y="480" width="56" height="20" as="geometry" />
        </mxCell>
        <mxCell id="UN--M1qzdoFLLi-wLeMt-37" value="&lt;div&gt;Test Instr&lt;/div&gt;" style="rounded=0;whiteSpace=wrap;html=1;fillColor=#f5f5f5;strokeColor=#666666;fontColor=#333333;" parent="1" vertex="1">
          <mxGeometry x="132.5" y="500" width="56" height="20" as="geometry" />
        </mxCell>
        <mxCell id="UN--M1qzdoFLLi-wLeMt-38" value="..." style="text;html=1;align=center;verticalAlign=middle;whiteSpace=wrap;rounded=0;" parent="1" vertex="1">
          <mxGeometry x="134.5" y="520" width="50" height="10" as="geometry" />
        </mxCell>
        <mxCell id="UN--M1qzdoFLLi-wLeMt-40" value="Buffer Size" style="text;html=1;align=center;verticalAlign=middle;whiteSpace=wrap;rounded=0;" parent="1" vertex="1">
          <mxGeometry x="236" y="475" width="60" height="30" as="geometry" />
        </mxCell>
        <mxCell id="UN--M1qzdoFLLi-wLeMt-41" value="" style="shape=curlyBracket;whiteSpace=wrap;html=1;rounded=1;flipH=1;labelPosition=right;verticalLabelPosition=middle;align=left;verticalAlign=middle;" parent="1" vertex="1">
          <mxGeometry x="224" y="410" width="20" height="160" as="geometry" />
        </mxCell>
        <mxCell id="UN--M1qzdoFLLi-wLeMt-42" value="" style="shape=curlyBracket;whiteSpace=wrap;html=1;rounded=1;labelPosition=left;verticalLabelPosition=middle;align=right;verticalAlign=middle;" parent="1" vertex="1">
          <mxGeometry x="103.5" y="440" width="20" height="100" as="geometry" />
        </mxCell>
        <mxCell id="UN--M1qzdoFLLi-wLeMt-43" value="控制&lt;div&gt;条数&lt;/div&gt;" style="text;html=1;align=center;verticalAlign=middle;whiteSpace=wrap;rounded=0;" parent="1" vertex="1">
          <mxGeometry x="60" y="477.5" width="53.5" height="25" as="geometry" />
        </mxCell>
        <mxCell id="8vc1bO7KXdbWyIbkzTQZ-1" value="Fetch" style="rounded=0;whiteSpace=wrap;html=1;" vertex="1" parent="1">
          <mxGeometry x="439.5" y="470" width="50" height="20" as="geometry" />
        </mxCell>
        <mxCell id="8vc1bO7KXdbWyIbkzTQZ-2" value="Decode&amp;amp;Rename" style="rounded=0;whiteSpace=wrap;html=1;" vertex="1" parent="1">
          <mxGeometry x="489.5" y="470" width="100" height="20" as="geometry" />
        </mxCell>
        <mxCell id="8vc1bO7KXdbWyIbkzTQZ-4" value="Dispatch" style="rounded=0;whiteSpace=wrap;html=1;fillColor=#f5f5f5;fontColor=#333333;strokeColor=#666666;" vertex="1" parent="1">
          <mxGeometry x="589.5" y="470" width="50" height="20" as="geometry" />
        </mxCell>
        <mxCell id="8vc1bO7KXdbWyIbkzTQZ-5" value="Issue" style="rounded=0;whiteSpace=wrap;html=1;fillColor=#f5f5f5;fontColor=#333333;strokeColor=#666666;" vertex="1" parent="1">
          <mxGeometry x="639.5" y="470" width="40" height="20" as="geometry" />
        </mxCell>
        <mxCell id="8vc1bO7KXdbWyIbkzTQZ-6" value="Execution" style="rounded=0;whiteSpace=wrap;html=1;fillColor=#fff2cc;strokeColor=#d6b656;" vertex="1" parent="1">
          <mxGeometry x="678.5" y="440" width="70" height="20" as="geometry" />
        </mxCell>
        <mxCell id="8vc1bO7KXdbWyIbkzTQZ-7" value="Address Generation" style="rounded=0;whiteSpace=wrap;html=1;fillColor=#f5f5f5;fontColor=#333333;strokeColor=#666666;" vertex="1" parent="1">
          <mxGeometry x="678.5" y="460" width="70" height="30" as="geometry" />
        </mxCell>
        <mxCell id="8vc1bO7KXdbWyIbkzTQZ-8" value="Cache&lt;div&gt;Access&lt;/div&gt;" style="rounded=0;whiteSpace=wrap;html=1;fillColor=#f5f5f5;fontColor=#333333;strokeColor=#666666;" vertex="1" parent="1">
          <mxGeometry x="678.5" y="490" width="70" height="30" as="geometry" />
        </mxCell>
        <mxCell id="8vc1bO7KXdbWyIbkzTQZ-9" value="Write Back" style="rounded=0;whiteSpace=wrap;html=1;" vertex="1" parent="1">
          <mxGeometry x="748.5" y="470" width="61" height="20" as="geometry" />
        </mxCell>
        <mxCell id="8vc1bO7KXdbWyIbkzTQZ-10" value="Validation" style="rounded=0;whiteSpace=wrap;html=1;" vertex="1" parent="1">
          <mxGeometry x="809.5" y="470" width="60" height="20" as="geometry" />
        </mxCell>
        <mxCell id="8vc1bO7KXdbWyIbkzTQZ-11" value="Commit" style="rounded=0;whiteSpace=wrap;html=1;" vertex="1" parent="1">
          <mxGeometry x="869.5" y="470" width="50" height="20" as="geometry" />
        </mxCell>
        <mxCell id="8vc1bO7KXdbWyIbkzTQZ-12" value="" style="endArrow=none;html=1;rounded=0;" edge="1" parent="1">
          <mxGeometry width="50" height="50" relative="1" as="geometry">
            <mxPoint x="589.5" y="500" as="sourcePoint" />
            <mxPoint x="589.5" y="420" as="targetPoint" />
          </mxGeometry>
        </mxCell>
        <mxCell id="8vc1bO7KXdbWyIbkzTQZ-13" value="" style="endArrow=none;html=1;rounded=0;" edge="1" parent="1">
          <mxGeometry width="50" height="50" relative="1" as="geometry">
            <mxPoint x="809.5" y="500" as="sourcePoint" />
            <mxPoint x="809.5" y="420" as="targetPoint" />
          </mxGeometry>
        </mxCell>
        <mxCell id="8vc1bO7KXdbWyIbkzTQZ-14" value="前端-有序" style="text;html=1;align=center;verticalAlign=middle;whiteSpace=wrap;rounded=0;" vertex="1" parent="1">
          <mxGeometry x="484.5" y="410" width="60" height="20" as="geometry" />
        </mxCell>
        <mxCell id="8vc1bO7KXdbWyIbkzTQZ-15" value="后端-无序" style="text;html=1;align=center;verticalAlign=middle;whiteSpace=wrap;rounded=0;" vertex="1" parent="1">
          <mxGeometry x="669.5" y="410" width="60" height="20" as="geometry" />
        </mxCell>
        <mxCell id="8vc1bO7KXdbWyIbkzTQZ-16" value="后端-有序" style="text;html=1;align=center;verticalAlign=middle;whiteSpace=wrap;rounded=0;" vertex="1" parent="1">
          <mxGeometry x="839.5" y="410" width="60" height="20" as="geometry" />
        </mxCell>
        <mxCell id="8vc1bO7KXdbWyIbkzTQZ-18" style="edgeStyle=orthogonalEdgeStyle;rounded=0;orthogonalLoop=1;jettySize=auto;html=1;fillColor=#dae8fc;strokeColor=#6c8ebf;exitX=0.5;exitY=1;exitDx=0;exitDy=0;" edge="1" parent="1" source="8vc1bO7KXdbWyIbkzTQZ-2">
          <mxGeometry relative="1" as="geometry">
            <mxPoint x="539.5" y="500" as="sourcePoint" />
            <mxPoint x="779.5" y="490" as="targetPoint" />
            <Array as="points">
              <mxPoint x="539.5" y="530" />
              <mxPoint x="779.5" y="530" />
            </Array>
          </mxGeometry>
        </mxCell>
        <mxCell id="8vc1bO7KXdbWyIbkzTQZ-19" value="&lt;b&gt;Load 值预测技术&lt;/b&gt; 数据直接写回目的寄存器" style="text;html=1;align=center;verticalAlign=middle;whiteSpace=wrap;rounded=0;" vertex="1" parent="1">
          <mxGeometry x="539.5" y="530" width="240" height="20" as="geometry" />
        </mxCell>
        <mxCell id="8vc1bO7KXdbWyIbkzTQZ-20" value="Fetch" style="rounded=0;whiteSpace=wrap;html=1;" vertex="1" parent="1">
          <mxGeometry x="439.5" y="640" width="50" height="20" as="geometry" />
        </mxCell>
        <mxCell id="8vc1bO7KXdbWyIbkzTQZ-40" style="edgeStyle=orthogonalEdgeStyle;rounded=0;orthogonalLoop=1;jettySize=auto;html=1;entryX=0;entryY=0.5;entryDx=0;entryDy=0;fillColor=#dae8fc;strokeColor=#6c8ebf;" edge="1" parent="1" source="8vc1bO7KXdbWyIbkzTQZ-21" target="8vc1bO7KXdbWyIbkzTQZ-38">
          <mxGeometry relative="1" as="geometry">
            <mxPoint x="599.5" y="620" as="targetPoint" />
            <Array as="points">
              <mxPoint x="539.5" y="620" />
            </Array>
          </mxGeometry>
        </mxCell>
        <mxCell id="8vc1bO7KXdbWyIbkzTQZ-21" value="Decode&amp;amp;Rename" style="rounded=0;whiteSpace=wrap;html=1;" vertex="1" parent="1">
          <mxGeometry x="489.5" y="640" width="100" height="20" as="geometry" />
        </mxCell>
        <mxCell id="8vc1bO7KXdbWyIbkzTQZ-22" value="Dispatch" style="rounded=0;whiteSpace=wrap;html=1;fillColor=#f5f5f5;fontColor=#333333;strokeColor=#666666;" vertex="1" parent="1">
          <mxGeometry x="589.5" y="640" width="50" height="20" as="geometry" />
        </mxCell>
        <mxCell id="8vc1bO7KXdbWyIbkzTQZ-23" value="Issue" style="rounded=0;whiteSpace=wrap;html=1;fillColor=#f5f5f5;fontColor=#333333;strokeColor=#666666;" vertex="1" parent="1">
          <mxGeometry x="639.5" y="640" width="40" height="20" as="geometry" />
        </mxCell>
        <mxCell id="8vc1bO7KXdbWyIbkzTQZ-24" value="Execution" style="rounded=0;whiteSpace=wrap;html=1;fillColor=#fff2cc;strokeColor=#d6b656;" vertex="1" parent="1">
          <mxGeometry x="678.5" y="610" width="70" height="20" as="geometry" />
        </mxCell>
        <mxCell id="8vc1bO7KXdbWyIbkzTQZ-25" value="Address Generation" style="rounded=0;whiteSpace=wrap;html=1;fillColor=#f5f5f5;fontColor=#333333;strokeColor=#666666;" vertex="1" parent="1">
          <mxGeometry x="678.5" y="630" width="70" height="30" as="geometry" />
        </mxCell>
        <mxCell id="8vc1bO7KXdbWyIbkzTQZ-26" value="Cache&lt;div&gt;Access&lt;/div&gt;" style="rounded=0;whiteSpace=wrap;html=1;" vertex="1" parent="1">
          <mxGeometry x="678.5" y="660" width="70" height="30" as="geometry" />
        </mxCell>
        <mxCell id="8vc1bO7KXdbWyIbkzTQZ-27" value="Write Back" style="rounded=0;whiteSpace=wrap;html=1;" vertex="1" parent="1">
          <mxGeometry x="748.5" y="640" width="61" height="20" as="geometry" />
        </mxCell>
        <mxCell id="8vc1bO7KXdbWyIbkzTQZ-28" value="Validation" style="rounded=0;whiteSpace=wrap;html=1;" vertex="1" parent="1">
          <mxGeometry x="809.5" y="640" width="60" height="20" as="geometry" />
        </mxCell>
        <mxCell id="8vc1bO7KXdbWyIbkzTQZ-29" value="Commit" style="rounded=0;whiteSpace=wrap;html=1;" vertex="1" parent="1">
          <mxGeometry x="869.5" y="640" width="50" height="20" as="geometry" />
        </mxCell>
        <mxCell id="8vc1bO7KXdbWyIbkzTQZ-30" value="" style="endArrow=none;html=1;rounded=0;" edge="1" parent="1">
          <mxGeometry width="50" height="50" relative="1" as="geometry">
            <mxPoint x="589.5" y="670" as="sourcePoint" />
            <mxPoint x="589.5" y="590" as="targetPoint" />
          </mxGeometry>
        </mxCell>
        <mxCell id="8vc1bO7KXdbWyIbkzTQZ-31" value="" style="endArrow=none;html=1;rounded=0;" edge="1" parent="1">
          <mxGeometry width="50" height="50" relative="1" as="geometry">
            <mxPoint x="809.5" y="670" as="sourcePoint" />
            <mxPoint x="809.5" y="590" as="targetPoint" />
          </mxGeometry>
        </mxCell>
        <mxCell id="8vc1bO7KXdbWyIbkzTQZ-32" value="前端-有序" style="text;html=1;align=center;verticalAlign=middle;whiteSpace=wrap;rounded=0;" vertex="1" parent="1">
          <mxGeometry x="484.5" y="580" width="60" height="20" as="geometry" />
        </mxCell>
        <mxCell id="8vc1bO7KXdbWyIbkzTQZ-33" value="后端-无序" style="text;html=1;align=center;verticalAlign=middle;whiteSpace=wrap;rounded=0;" vertex="1" parent="1">
          <mxGeometry x="669.5" y="580" width="60" height="20" as="geometry" />
        </mxCell>
        <mxCell id="8vc1bO7KXdbWyIbkzTQZ-34" value="后端-有序" style="text;html=1;align=center;verticalAlign=middle;whiteSpace=wrap;rounded=0;" vertex="1" parent="1">
          <mxGeometry x="839.5" y="580" width="60" height="20" as="geometry" />
        </mxCell>
        <mxCell id="8vc1bO7KXdbWyIbkzTQZ-38" value="Prefetch" style="rounded=0;whiteSpace=wrap;html=1;fillColor=#dae8fc;strokeColor=#6c8ebf;" vertex="1" parent="1">
          <mxGeometry x="608.5" y="610" width="70" height="20" as="geometry" />
        </mxCell>
        <mxCell id="8vc1bO7KXdbWyIbkzTQZ-41" value="&lt;b&gt;Load 地址预测技术&lt;/b&gt;&amp;nbsp;&lt;div&gt;提前预测访存地址&lt;/div&gt;" style="text;html=1;align=center;verticalAlign=middle;whiteSpace=wrap;rounded=0;" vertex="1" parent="1">
          <mxGeometry x="531.5" y="670" width="110" height="30" as="geometry" />
        </mxCell>
        <mxCell id="8vc1bO7KXdbWyIbkzTQZ-42" value="图【+思路绘图】" style="text;whiteSpace=wrap;" vertex="1" parent="1">
          <mxGeometry x="57.004736842105316" y="677.0031578947369" width="119" height="36" as="geometry" />
        </mxCell>
      </root>
    </mxGraphModel>
  </diagram>
  <diagram id="deKi7DGXsOXbVfHtQ1pn" name="Ch45exp">
    <mxGraphModel dx="407" dy="263" grid="0" gridSize="10" guides="1" tooltips="1" connect="1" arrows="1" fold="1" page="1" pageScale="1" pageWidth="827" pageHeight="1169" math="0" shadow="0">
      <root>
        <mxCell id="0" />
        <mxCell id="1" parent="0" />
        <mxCell id="oxXZtqg8ceAaz0zIzIaw-35" style="edgeStyle=orthogonalEdgeStyle;rounded=0;orthogonalLoop=1;jettySize=auto;html=1;entryX=0.5;entryY=0;entryDx=0;entryDy=0;" edge="1" parent="1" source="oxXZtqg8ceAaz0zIzIaw-1" target="oxXZtqg8ceAaz0zIzIaw-33">
          <mxGeometry relative="1" as="geometry">
            <Array as="points">
              <mxPoint x="96" y="117" />
              <mxPoint x="336" y="117" />
            </Array>
          </mxGeometry>
        </mxCell>
        <mxCell id="oxXZtqg8ceAaz0zIzIaw-1" value="25" style="rounded=0;whiteSpace=wrap;html=1;fillColor=#fff2cc;strokeColor=#d6b656;" vertex="1" parent="1">
          <mxGeometry x="76" y="127" width="40" height="20" as="geometry" />
        </mxCell>
        <mxCell id="oxXZtqg8ceAaz0zIzIaw-11" value="0" style="text;html=1;align=center;verticalAlign=middle;whiteSpace=wrap;rounded=0;" vertex="1" parent="1">
          <mxGeometry x="86" y="97" width="20" height="20" as="geometry" />
        </mxCell>
        <mxCell id="oxXZtqg8ceAaz0zIzIaw-12" value="Addr" style="text;html=1;align=center;verticalAlign=middle;whiteSpace=wrap;rounded=0;" vertex="1" parent="1">
          <mxGeometry x="30" y="97" width="40" height="20" as="geometry" />
        </mxCell>
        <mxCell id="oxXZtqg8ceAaz0zIzIaw-13" value="Const" style="text;html=1;align=center;verticalAlign=middle;whiteSpace=wrap;rounded=0;" vertex="1" parent="1">
          <mxGeometry x="30" y="127" width="40" height="20" as="geometry" />
        </mxCell>
        <mxCell id="oxXZtqg8ceAaz0zIzIaw-14" value="32" style="text;html=1;align=center;verticalAlign=middle;whiteSpace=wrap;rounded=0;" vertex="1" parent="1">
          <mxGeometry x="146" y="97" width="20" height="20" as="geometry" />
        </mxCell>
        <mxCell id="oxXZtqg8ceAaz0zIzIaw-15" value="64" style="text;html=1;align=center;verticalAlign=middle;whiteSpace=wrap;rounded=0;" vertex="1" parent="1">
          <mxGeometry x="206" y="97" width="20" height="20" as="geometry" />
        </mxCell>
        <mxCell id="oxXZtqg8ceAaz0zIzIaw-16" value="96" style="text;html=1;align=center;verticalAlign=middle;whiteSpace=wrap;rounded=0;" vertex="1" parent="1">
          <mxGeometry x="266" y="97" width="20" height="20" as="geometry" />
        </mxCell>
        <mxCell id="oxXZtqg8ceAaz0zIzIaw-17" value="128" style="text;html=1;align=center;verticalAlign=middle;whiteSpace=wrap;rounded=0;" vertex="1" parent="1">
          <mxGeometry x="326" y="97" width="20" height="20" as="geometry" />
        </mxCell>
        <mxCell id="oxXZtqg8ceAaz0zIzIaw-18" value="Indices" style="text;html=1;align=center;verticalAlign=middle;whiteSpace=wrap;rounded=0;" vertex="1" parent="1">
          <mxGeometry x="30" y="70" width="40" height="20" as="geometry" />
        </mxCell>
        <mxCell id="oxXZtqg8ceAaz0zIzIaw-37" style="edgeStyle=orthogonalEdgeStyle;rounded=0;orthogonalLoop=1;jettySize=auto;html=1;entryX=0;entryY=0.5;entryDx=0;entryDy=0;" edge="1" parent="1" source="oxXZtqg8ceAaz0zIzIaw-19" target="oxXZtqg8ceAaz0zIzIaw-26">
          <mxGeometry relative="1" as="geometry" />
        </mxCell>
        <mxCell id="oxXZtqg8ceAaz0zIzIaw-19" value="8" style="text;html=1;align=center;verticalAlign=middle;whiteSpace=wrap;rounded=0;" vertex="1" parent="1">
          <mxGeometry x="86" y="70" width="20" height="20" as="geometry" />
        </mxCell>
        <mxCell id="oxXZtqg8ceAaz0zIzIaw-20" value="var i" style="text;html=1;align=center;verticalAlign=middle;whiteSpace=wrap;rounded=0;" vertex="1" parent="1">
          <mxGeometry x="30" y="43" width="40" height="20" as="geometry" />
        </mxCell>
        <mxCell id="oxXZtqg8ceAaz0zIzIaw-21" value="0" style="text;html=1;align=center;verticalAlign=middle;whiteSpace=wrap;rounded=0;" vertex="1" parent="1">
          <mxGeometry x="86" y="43" width="20" height="20" as="geometry" />
        </mxCell>
        <mxCell id="oxXZtqg8ceAaz0zIzIaw-22" value="1" style="text;html=1;align=center;verticalAlign=middle;whiteSpace=wrap;rounded=0;" vertex="1" parent="1">
          <mxGeometry x="146" y="43" width="20" height="20" as="geometry" />
        </mxCell>
        <mxCell id="oxXZtqg8ceAaz0zIzIaw-23" value="2" style="text;html=1;align=center;verticalAlign=middle;whiteSpace=wrap;rounded=0;" vertex="1" parent="1">
          <mxGeometry x="206" y="43" width="20" height="20" as="geometry" />
        </mxCell>
        <mxCell id="oxXZtqg8ceAaz0zIzIaw-24" value="3" style="text;html=1;align=center;verticalAlign=middle;whiteSpace=wrap;rounded=0;" vertex="1" parent="1">
          <mxGeometry x="266" y="43" width="20" height="20" as="geometry" />
        </mxCell>
        <mxCell id="oxXZtqg8ceAaz0zIzIaw-25" value="4" style="text;html=1;align=center;verticalAlign=middle;whiteSpace=wrap;rounded=0;" vertex="1" parent="1">
          <mxGeometry x="326" y="43" width="20" height="20" as="geometry" />
        </mxCell>
        <mxCell id="oxXZtqg8ceAaz0zIzIaw-38" style="edgeStyle=orthogonalEdgeStyle;rounded=0;orthogonalLoop=1;jettySize=auto;html=1;exitX=1;exitY=0.5;exitDx=0;exitDy=0;entryX=0;entryY=0.5;entryDx=0;entryDy=0;" edge="1" parent="1" source="oxXZtqg8ceAaz0zIzIaw-26" target="oxXZtqg8ceAaz0zIzIaw-27">
          <mxGeometry relative="1" as="geometry" />
        </mxCell>
        <mxCell id="oxXZtqg8ceAaz0zIzIaw-26" value="0" style="text;html=1;align=center;verticalAlign=middle;whiteSpace=wrap;rounded=0;" vertex="1" parent="1">
          <mxGeometry x="146" y="70" width="20" height="20" as="geometry" />
        </mxCell>
        <mxCell id="oxXZtqg8ceAaz0zIzIaw-39" style="edgeStyle=orthogonalEdgeStyle;rounded=0;orthogonalLoop=1;jettySize=auto;html=1;" edge="1" parent="1" source="oxXZtqg8ceAaz0zIzIaw-27" target="oxXZtqg8ceAaz0zIzIaw-28">
          <mxGeometry relative="1" as="geometry" />
        </mxCell>
        <mxCell id="oxXZtqg8ceAaz0zIzIaw-27" value="32" style="text;html=1;align=center;verticalAlign=middle;whiteSpace=wrap;rounded=0;" vertex="1" parent="1">
          <mxGeometry x="206" y="70" width="20" height="20" as="geometry" />
        </mxCell>
        <mxCell id="oxXZtqg8ceAaz0zIzIaw-40" style="edgeStyle=orthogonalEdgeStyle;rounded=0;orthogonalLoop=1;jettySize=auto;html=1;entryX=0;entryY=0.5;entryDx=0;entryDy=0;" edge="1" parent="1" source="oxXZtqg8ceAaz0zIzIaw-28" target="oxXZtqg8ceAaz0zIzIaw-29">
          <mxGeometry relative="1" as="geometry" />
        </mxCell>
        <mxCell id="oxXZtqg8ceAaz0zIzIaw-28" value="16" style="text;html=1;align=center;verticalAlign=middle;whiteSpace=wrap;rounded=0;" vertex="1" parent="1">
          <mxGeometry x="266" y="70" width="20" height="20" as="geometry" />
        </mxCell>
        <mxCell id="oxXZtqg8ceAaz0zIzIaw-29" value="24" style="text;html=1;align=center;verticalAlign=middle;whiteSpace=wrap;rounded=0;" vertex="1" parent="1">
          <mxGeometry x="326" y="70" width="20" height="20" as="geometry" />
        </mxCell>
        <mxCell id="oxXZtqg8ceAaz0zIzIaw-34" style="edgeStyle=orthogonalEdgeStyle;rounded=0;orthogonalLoop=1;jettySize=auto;html=1;entryX=0.5;entryY=1;entryDx=0;entryDy=0;" edge="1" parent="1" source="oxXZtqg8ceAaz0zIzIaw-30" target="oxXZtqg8ceAaz0zIzIaw-1">
          <mxGeometry relative="1" as="geometry">
            <Array as="points">
              <mxPoint x="156" y="157" />
              <mxPoint x="96" y="157" />
            </Array>
          </mxGeometry>
        </mxCell>
        <mxCell id="oxXZtqg8ceAaz0zIzIaw-30" value="25" style="rounded=0;whiteSpace=wrap;html=1;fillColor=#fff2cc;strokeColor=#d6b656;" vertex="1" parent="1">
          <mxGeometry x="136" y="127" width="40" height="20" as="geometry" />
        </mxCell>
        <mxCell id="oxXZtqg8ceAaz0zIzIaw-43" style="edgeStyle=orthogonalEdgeStyle;rounded=0;orthogonalLoop=1;jettySize=auto;html=1;entryX=0.5;entryY=0;entryDx=0;entryDy=0;" edge="1" parent="1" source="oxXZtqg8ceAaz0zIzIaw-31" target="oxXZtqg8ceAaz0zIzIaw-32">
          <mxGeometry relative="1" as="geometry">
            <Array as="points">
              <mxPoint x="216" y="121" />
              <mxPoint x="276" y="121" />
            </Array>
          </mxGeometry>
        </mxCell>
        <mxCell id="oxXZtqg8ceAaz0zIzIaw-31" value="25" style="rounded=0;whiteSpace=wrap;html=1;fillColor=#fff2cc;strokeColor=#d6b656;" vertex="1" parent="1">
          <mxGeometry x="196" y="127" width="40" height="20" as="geometry" />
        </mxCell>
        <mxCell id="oxXZtqg8ceAaz0zIzIaw-32" value="25" style="rounded=0;whiteSpace=wrap;html=1;fillColor=#fff2cc;strokeColor=#d6b656;" vertex="1" parent="1">
          <mxGeometry x="256" y="127" width="40" height="20" as="geometry" />
        </mxCell>
        <mxCell id="oxXZtqg8ceAaz0zIzIaw-41" style="edgeStyle=orthogonalEdgeStyle;rounded=0;orthogonalLoop=1;jettySize=auto;html=1;entryX=0.5;entryY=1;entryDx=0;entryDy=0;" edge="1" parent="1" source="oxXZtqg8ceAaz0zIzIaw-33" target="oxXZtqg8ceAaz0zIzIaw-31">
          <mxGeometry relative="1" as="geometry">
            <Array as="points">
              <mxPoint x="336" y="158" />
              <mxPoint x="216" y="158" />
            </Array>
          </mxGeometry>
        </mxCell>
        <mxCell id="oxXZtqg8ceAaz0zIzIaw-33" value="25" style="rounded=0;whiteSpace=wrap;html=1;fillColor=#fff2cc;strokeColor=#d6b656;" vertex="1" parent="1">
          <mxGeometry x="316" y="127" width="40" height="20" as="geometry" />
        </mxCell>
        <mxCell id="oxXZtqg8ceAaz0zIzIaw-44" style="edgeStyle=orthogonalEdgeStyle;rounded=0;orthogonalLoop=1;jettySize=auto;html=1;entryX=0.5;entryY=0;entryDx=0;entryDy=0;" edge="1" parent="1" source="oxXZtqg8ceAaz0zIzIaw-45" target="oxXZtqg8ceAaz0zIzIaw-53">
          <mxGeometry relative="1" as="geometry">
            <Array as="points">
              <mxPoint x="96" y="165.98" />
              <mxPoint x="336" y="165.98" />
            </Array>
          </mxGeometry>
        </mxCell>
        <mxCell id="oxXZtqg8ceAaz0zIzIaw-45" value="5" style="rounded=0;whiteSpace=wrap;html=1;fillColor=#d5e8d4;strokeColor=#82b366;" vertex="1" parent="1">
          <mxGeometry x="76" y="175.98" width="40" height="20" as="geometry" />
        </mxCell>
        <mxCell id="oxXZtqg8ceAaz0zIzIaw-46" value="Random" style="text;html=1;align=center;verticalAlign=middle;whiteSpace=wrap;rounded=0;" vertex="1" parent="1">
          <mxGeometry x="30" y="175.98" width="40" height="20" as="geometry" />
        </mxCell>
        <mxCell id="oxXZtqg8ceAaz0zIzIaw-47" style="edgeStyle=orthogonalEdgeStyle;rounded=0;orthogonalLoop=1;jettySize=auto;html=1;entryX=0.5;entryY=1;entryDx=0;entryDy=0;" edge="1" parent="1" source="oxXZtqg8ceAaz0zIzIaw-48" target="oxXZtqg8ceAaz0zIzIaw-45">
          <mxGeometry relative="1" as="geometry">
            <Array as="points">
              <mxPoint x="156" y="205.98" />
              <mxPoint x="96" y="205.98" />
            </Array>
          </mxGeometry>
        </mxCell>
        <mxCell id="oxXZtqg8ceAaz0zIzIaw-48" value="67" style="rounded=0;whiteSpace=wrap;html=1;fillColor=#d5e8d4;strokeColor=#82b366;" vertex="1" parent="1">
          <mxGeometry x="136" y="175.98" width="40" height="20" as="geometry" />
        </mxCell>
        <mxCell id="oxXZtqg8ceAaz0zIzIaw-49" style="edgeStyle=orthogonalEdgeStyle;rounded=0;orthogonalLoop=1;jettySize=auto;html=1;entryX=0.5;entryY=0;entryDx=0;entryDy=0;" edge="1" parent="1" source="oxXZtqg8ceAaz0zIzIaw-50" target="oxXZtqg8ceAaz0zIzIaw-51">
          <mxGeometry relative="1" as="geometry">
            <Array as="points">
              <mxPoint x="216" y="169.98" />
              <mxPoint x="276" y="169.98" />
            </Array>
          </mxGeometry>
        </mxCell>
        <mxCell id="oxXZtqg8ceAaz0zIzIaw-50" value="23" style="rounded=0;whiteSpace=wrap;html=1;fillColor=#d5e8d4;strokeColor=#82b366;" vertex="1" parent="1">
          <mxGeometry x="196" y="175.98" width="40" height="20" as="geometry" />
        </mxCell>
        <mxCell id="oxXZtqg8ceAaz0zIzIaw-51" value="57" style="rounded=0;whiteSpace=wrap;html=1;fillColor=#d5e8d4;strokeColor=#82b366;" vertex="1" parent="1">
          <mxGeometry x="256" y="175.98" width="40" height="20" as="geometry" />
        </mxCell>
        <mxCell id="oxXZtqg8ceAaz0zIzIaw-52" style="edgeStyle=orthogonalEdgeStyle;rounded=0;orthogonalLoop=1;jettySize=auto;html=1;entryX=0.5;entryY=1;entryDx=0;entryDy=0;" edge="1" parent="1" source="oxXZtqg8ceAaz0zIzIaw-53" target="oxXZtqg8ceAaz0zIzIaw-50">
          <mxGeometry relative="1" as="geometry">
            <Array as="points">
              <mxPoint x="336" y="207" />
              <mxPoint x="216" y="207" />
            </Array>
          </mxGeometry>
        </mxCell>
        <mxCell id="oxXZtqg8ceAaz0zIzIaw-53" value="48" style="rounded=0;whiteSpace=wrap;html=1;fillColor=#d5e8d4;strokeColor=#82b366;" vertex="1" parent="1">
          <mxGeometry x="316" y="175.98" width="40" height="20" as="geometry" />
        </mxCell>
        <mxCell id="oxXZtqg8ceAaz0zIzIaw-55" style="edgeStyle=orthogonalEdgeStyle;rounded=0;orthogonalLoop=1;jettySize=auto;html=1;entryX=0.5;entryY=0;entryDx=0;entryDy=0;" edge="1" parent="1" source="oxXZtqg8ceAaz0zIzIaw-56" target="oxXZtqg8ceAaz0zIzIaw-64">
          <mxGeometry relative="1" as="geometry">
            <Array as="points">
              <mxPoint x="96" y="217" />
              <mxPoint x="336" y="217" />
            </Array>
          </mxGeometry>
        </mxCell>
        <mxCell id="oxXZtqg8ceAaz0zIzIaw-56" value="130" style="rounded=0;whiteSpace=wrap;html=1;fillColor=#ffe6cc;strokeColor=#d79b00;" vertex="1" parent="1">
          <mxGeometry x="76" y="227" width="40" height="20" as="geometry" />
        </mxCell>
        <mxCell id="oxXZtqg8ceAaz0zIzIaw-57" value="Strided" style="text;html=1;align=center;verticalAlign=middle;whiteSpace=wrap;rounded=0;" vertex="1" parent="1">
          <mxGeometry x="30" y="227" width="40" height="20" as="geometry" />
        </mxCell>
        <mxCell id="oxXZtqg8ceAaz0zIzIaw-58" style="edgeStyle=orthogonalEdgeStyle;rounded=0;orthogonalLoop=1;jettySize=auto;html=1;entryX=0.5;entryY=1;entryDx=0;entryDy=0;" edge="1" parent="1" source="oxXZtqg8ceAaz0zIzIaw-59" target="oxXZtqg8ceAaz0zIzIaw-56">
          <mxGeometry relative="1" as="geometry">
            <Array as="points">
              <mxPoint x="156" y="257" />
              <mxPoint x="96" y="257" />
            </Array>
          </mxGeometry>
        </mxCell>
        <mxCell id="oxXZtqg8ceAaz0zIzIaw-59" value="66" style="rounded=0;whiteSpace=wrap;html=1;fillColor=#ffe6cc;strokeColor=#d79b00;" vertex="1" parent="1">
          <mxGeometry x="136" y="227" width="40" height="20" as="geometry" />
        </mxCell>
        <mxCell id="oxXZtqg8ceAaz0zIzIaw-60" style="edgeStyle=orthogonalEdgeStyle;rounded=0;orthogonalLoop=1;jettySize=auto;html=1;entryX=0.5;entryY=0;entryDx=0;entryDy=0;" edge="1" parent="1" source="oxXZtqg8ceAaz0zIzIaw-61" target="oxXZtqg8ceAaz0zIzIaw-62">
          <mxGeometry relative="1" as="geometry">
            <Array as="points">
              <mxPoint x="216" y="221" />
              <mxPoint x="276" y="221" />
            </Array>
          </mxGeometry>
        </mxCell>
        <mxCell id="oxXZtqg8ceAaz0zIzIaw-61" value="258" style="rounded=0;whiteSpace=wrap;html=1;fillColor=#ffe6cc;strokeColor=#d79b00;" vertex="1" parent="1">
          <mxGeometry x="196" y="227" width="40" height="20" as="geometry" />
        </mxCell>
        <mxCell id="oxXZtqg8ceAaz0zIzIaw-62" value="322" style="rounded=0;whiteSpace=wrap;html=1;fillColor=#ffe6cc;strokeColor=#d79b00;" vertex="1" parent="1">
          <mxGeometry x="256" y="227" width="40" height="20" as="geometry" />
        </mxCell>
        <mxCell id="oxXZtqg8ceAaz0zIzIaw-63" style="edgeStyle=orthogonalEdgeStyle;rounded=0;orthogonalLoop=1;jettySize=auto;html=1;entryX=0.5;entryY=1;entryDx=0;entryDy=0;" edge="1" parent="1" source="oxXZtqg8ceAaz0zIzIaw-64" target="oxXZtqg8ceAaz0zIzIaw-61">
          <mxGeometry relative="1" as="geometry">
            <Array as="points">
              <mxPoint x="336" y="258.02" />
              <mxPoint x="216" y="258.02" />
            </Array>
          </mxGeometry>
        </mxCell>
        <mxCell id="oxXZtqg8ceAaz0zIzIaw-64" value="194" style="rounded=0;whiteSpace=wrap;html=1;fillColor=#ffe6cc;strokeColor=#d79b00;" vertex="1" parent="1">
          <mxGeometry x="316" y="227" width="40" height="20" as="geometry" />
        </mxCell>
        <mxCell id="oxXZtqg8ceAaz0zIzIaw-118" style="edgeStyle=orthogonalEdgeStyle;rounded=0;orthogonalLoop=1;jettySize=auto;html=1;entryX=0.5;entryY=0;entryDx=0;entryDy=0;" edge="1" parent="1" source="oxXZtqg8ceAaz0zIzIaw-67" target="oxXZtqg8ceAaz0zIzIaw-92">
          <mxGeometry relative="1" as="geometry">
            <Array as="points">
              <mxPoint x="142" y="417" />
              <mxPoint x="202" y="417" />
            </Array>
          </mxGeometry>
        </mxCell>
        <mxCell id="oxXZtqg8ceAaz0zIzIaw-67" value="8" style="rounded=0;whiteSpace=wrap;html=1;fillColor=#fff2cc;strokeColor=#d6b656;" vertex="1" parent="1">
          <mxGeometry x="122" y="428" width="40" height="20" as="geometry" />
        </mxCell>
        <mxCell id="oxXZtqg8ceAaz0zIzIaw-68" value="0" style="text;html=1;align=center;verticalAlign=middle;whiteSpace=wrap;rounded=0;" vertex="1" parent="1">
          <mxGeometry x="132" y="383" width="20" height="20" as="geometry" />
        </mxCell>
        <mxCell id="oxXZtqg8ceAaz0zIzIaw-69" value="Addr" style="text;html=1;align=center;verticalAlign=middle;whiteSpace=wrap;rounded=0;" vertex="1" parent="1">
          <mxGeometry x="76" y="383" width="40" height="20" as="geometry" />
        </mxCell>
        <mxCell id="oxXZtqg8ceAaz0zIzIaw-70" value="Strided" style="text;html=1;align=center;verticalAlign=middle;whiteSpace=wrap;rounded=0;" vertex="1" parent="1">
          <mxGeometry x="76" y="428" width="40" height="20" as="geometry" />
        </mxCell>
        <mxCell id="oxXZtqg8ceAaz0zIzIaw-71" value="32" style="text;html=1;align=center;verticalAlign=middle;whiteSpace=wrap;rounded=0;" vertex="1" parent="1">
          <mxGeometry x="192" y="383" width="20" height="20" as="geometry" />
        </mxCell>
        <mxCell id="oxXZtqg8ceAaz0zIzIaw-72" value="64" style="text;html=1;align=center;verticalAlign=middle;whiteSpace=wrap;rounded=0;" vertex="1" parent="1">
          <mxGeometry x="252" y="383" width="20" height="20" as="geometry" />
        </mxCell>
        <mxCell id="oxXZtqg8ceAaz0zIzIaw-73" value="96" style="text;html=1;align=center;verticalAlign=middle;whiteSpace=wrap;rounded=0;" vertex="1" parent="1">
          <mxGeometry x="312" y="383" width="20" height="20" as="geometry" />
        </mxCell>
        <mxCell id="oxXZtqg8ceAaz0zIzIaw-74" value="128" style="text;html=1;align=center;verticalAlign=middle;whiteSpace=wrap;rounded=0;" vertex="1" parent="1">
          <mxGeometry x="372" y="383" width="20" height="20" as="geometry" />
        </mxCell>
        <mxCell id="oxXZtqg8ceAaz0zIzIaw-120" style="edgeStyle=orthogonalEdgeStyle;rounded=0;orthogonalLoop=1;jettySize=auto;html=1;entryX=0.5;entryY=1;entryDx=0;entryDy=0;" edge="1" parent="1" source="oxXZtqg8ceAaz0zIzIaw-92" target="oxXZtqg8ceAaz0zIzIaw-94">
          <mxGeometry relative="1" as="geometry">
            <Array as="points">
              <mxPoint x="202" y="461" />
              <mxPoint x="262" y="461" />
            </Array>
          </mxGeometry>
        </mxCell>
        <mxCell id="oxXZtqg8ceAaz0zIzIaw-92" value="16" style="rounded=0;whiteSpace=wrap;html=1;fillColor=#fff2cc;strokeColor=#d6b656;" vertex="1" parent="1">
          <mxGeometry x="182" y="428" width="40" height="20" as="geometry" />
        </mxCell>
        <mxCell id="oxXZtqg8ceAaz0zIzIaw-121" style="edgeStyle=orthogonalEdgeStyle;rounded=0;orthogonalLoop=1;jettySize=auto;html=1;entryX=0.5;entryY=0;entryDx=0;entryDy=0;" edge="1" parent="1" source="oxXZtqg8ceAaz0zIzIaw-94" target="oxXZtqg8ceAaz0zIzIaw-95">
          <mxGeometry relative="1" as="geometry">
            <Array as="points">
              <mxPoint x="262" y="416" />
              <mxPoint x="322" y="416" />
            </Array>
          </mxGeometry>
        </mxCell>
        <mxCell id="oxXZtqg8ceAaz0zIzIaw-94" value="24" style="rounded=0;whiteSpace=wrap;html=1;fillColor=#fff2cc;strokeColor=#d6b656;" vertex="1" parent="1">
          <mxGeometry x="242" y="428" width="40" height="20" as="geometry" />
        </mxCell>
        <mxCell id="oxXZtqg8ceAaz0zIzIaw-95" value="32" style="rounded=0;whiteSpace=wrap;html=1;fillColor=#fff2cc;strokeColor=#d6b656;" vertex="1" parent="1">
          <mxGeometry x="302" y="428" width="40" height="20" as="geometry" />
        </mxCell>
        <mxCell id="oxXZtqg8ceAaz0zIzIaw-97" value="40" style="rounded=0;whiteSpace=wrap;html=1;fillColor=#fff2cc;strokeColor=#d6b656;" vertex="1" parent="1">
          <mxGeometry x="362" y="428" width="40" height="20" as="geometry" />
        </mxCell>
        <mxCell id="oxXZtqg8ceAaz0zIzIaw-124" style="edgeStyle=orthogonalEdgeStyle;rounded=0;orthogonalLoop=1;jettySize=auto;html=1;entryX=0.5;entryY=1;entryDx=0;entryDy=0;" edge="1" parent="1" source="oxXZtqg8ceAaz0zIzIaw-99" target="oxXZtqg8ceAaz0zIzIaw-105">
          <mxGeometry relative="1" as="geometry">
            <Array as="points">
              <mxPoint x="142" y="508" />
              <mxPoint x="322" y="508" />
            </Array>
          </mxGeometry>
        </mxCell>
        <mxCell id="oxXZtqg8ceAaz0zIzIaw-99" value="24" style="rounded=0;whiteSpace=wrap;html=1;fillColor=#d5e8d4;strokeColor=#82b366;" vertex="1" parent="1">
          <mxGeometry x="122" y="476.98" width="40" height="20" as="geometry" />
        </mxCell>
        <mxCell id="oxXZtqg8ceAaz0zIzIaw-100" value="Random" style="text;html=1;align=center;verticalAlign=middle;whiteSpace=wrap;rounded=0;" vertex="1" parent="1">
          <mxGeometry x="76" y="476.98" width="40" height="20" as="geometry" />
        </mxCell>
        <mxCell id="oxXZtqg8ceAaz0zIzIaw-102" value="..." style="rounded=0;whiteSpace=wrap;html=1;fillColor=#d5e8d4;strokeColor=#82b366;" vertex="1" parent="1">
          <mxGeometry x="182" y="476.98" width="40" height="20" as="geometry" />
        </mxCell>
        <mxCell id="oxXZtqg8ceAaz0zIzIaw-130" style="edgeStyle=orthogonalEdgeStyle;rounded=0;orthogonalLoop=1;jettySize=auto;html=1;exitX=0.25;exitY=0;exitDx=0;exitDy=0;entryX=0.5;entryY=0;entryDx=0;entryDy=0;" edge="1" parent="1" source="oxXZtqg8ceAaz0zIzIaw-104" target="oxXZtqg8ceAaz0zIzIaw-102">
          <mxGeometry relative="1" as="geometry">
            <Array as="points">
              <mxPoint x="252" y="464" />
              <mxPoint x="202" y="464" />
            </Array>
          </mxGeometry>
        </mxCell>
        <mxCell id="oxXZtqg8ceAaz0zIzIaw-104" value="8" style="rounded=0;whiteSpace=wrap;html=1;fillColor=#d5e8d4;strokeColor=#82b366;" vertex="1" parent="1">
          <mxGeometry x="242" y="476.98" width="40" height="20" as="geometry" />
        </mxCell>
        <mxCell id="oxXZtqg8ceAaz0zIzIaw-126" style="edgeStyle=orthogonalEdgeStyle;rounded=0;orthogonalLoop=1;jettySize=auto;html=1;exitX=0.75;exitY=1;exitDx=0;exitDy=0;entryX=0.5;entryY=1;entryDx=0;entryDy=0;" edge="1" parent="1" source="oxXZtqg8ceAaz0zIzIaw-105" target="oxXZtqg8ceAaz0zIzIaw-107">
          <mxGeometry relative="1" as="geometry">
            <Array as="points">
              <mxPoint x="332" y="508" />
              <mxPoint x="382" y="508" />
            </Array>
          </mxGeometry>
        </mxCell>
        <mxCell id="oxXZtqg8ceAaz0zIzIaw-105" value="32" style="rounded=0;whiteSpace=wrap;html=1;fillColor=#d5e8d4;strokeColor=#82b366;" vertex="1" parent="1">
          <mxGeometry x="302" y="476.98" width="40" height="20" as="geometry" />
        </mxCell>
        <mxCell id="oxXZtqg8ceAaz0zIzIaw-127" style="edgeStyle=orthogonalEdgeStyle;rounded=0;orthogonalLoop=1;jettySize=auto;html=1;entryX=0.5;entryY=0;entryDx=0;entryDy=0;" edge="1" parent="1" source="oxXZtqg8ceAaz0zIzIaw-107" target="oxXZtqg8ceAaz0zIzIaw-104">
          <mxGeometry relative="1" as="geometry">
            <Array as="points">
              <mxPoint x="382" y="464" />
              <mxPoint x="262" y="464" />
            </Array>
          </mxGeometry>
        </mxCell>
        <mxCell id="oxXZtqg8ceAaz0zIzIaw-107" value="16" style="rounded=0;whiteSpace=wrap;html=1;fillColor=#d5e8d4;strokeColor=#82b366;" vertex="1" parent="1">
          <mxGeometry x="362" y="476.98" width="40" height="20" as="geometry" />
        </mxCell>
        <mxCell id="oxXZtqg8ceAaz0zIzIaw-109" value="11" style="rounded=0;whiteSpace=wrap;html=1;fillColor=#ffe6cc;strokeColor=#d79b00;" vertex="1" parent="1">
          <mxGeometry x="122" y="528" width="40" height="20" as="geometry" />
        </mxCell>
        <mxCell id="oxXZtqg8ceAaz0zIzIaw-110" value="SA+RV" style="text;html=1;align=center;verticalAlign=middle;whiteSpace=wrap;rounded=0;" vertex="1" parent="1">
          <mxGeometry x="76" y="528" width="40" height="20" as="geometry" />
        </mxCell>
        <mxCell id="oxXZtqg8ceAaz0zIzIaw-112" value="288" style="rounded=0;whiteSpace=wrap;html=1;fillColor=#ffe6cc;strokeColor=#d79b00;" vertex="1" parent="1">
          <mxGeometry x="182" y="528" width="40" height="20" as="geometry" />
        </mxCell>
        <mxCell id="oxXZtqg8ceAaz0zIzIaw-114" value="9" style="rounded=0;whiteSpace=wrap;html=1;fillColor=#ffe6cc;strokeColor=#d79b00;" vertex="1" parent="1">
          <mxGeometry x="242" y="528" width="40" height="20" as="geometry" />
        </mxCell>
        <mxCell id="oxXZtqg8ceAaz0zIzIaw-115" value="22" style="rounded=0;whiteSpace=wrap;html=1;fillColor=#ffe6cc;strokeColor=#d79b00;" vertex="1" parent="1">
          <mxGeometry x="302" y="528" width="40" height="20" as="geometry" />
        </mxCell>
        <mxCell id="oxXZtqg8ceAaz0zIzIaw-117" value="46" style="rounded=0;whiteSpace=wrap;html=1;fillColor=#ffe6cc;strokeColor=#d79b00;" vertex="1" parent="1">
          <mxGeometry x="362" y="528" width="40" height="20" as="geometry" />
        </mxCell>
        <mxCell id="oxXZtqg8ceAaz0zIzIaw-123" style="edgeStyle=orthogonalEdgeStyle;rounded=0;orthogonalLoop=1;jettySize=auto;html=1;entryX=0.5;entryY=1;entryDx=0;entryDy=0;" edge="1" parent="1">
          <mxGeometry relative="1" as="geometry">
            <mxPoint x="322" y="448" as="sourcePoint" />
            <mxPoint x="382" y="448" as="targetPoint" />
            <Array as="points">
              <mxPoint x="322" y="461" />
              <mxPoint x="382" y="461" />
            </Array>
          </mxGeometry>
        </mxCell>
        <mxCell id="oxXZtqg8ceAaz0zIzIaw-131" style="edgeStyle=orthogonalEdgeStyle;rounded=0;orthogonalLoop=1;jettySize=auto;html=1;entryX=0.5;entryY=0;entryDx=0;entryDy=0;" edge="1" parent="1">
          <mxGeometry relative="1" as="geometry">
            <mxPoint x="142" y="528" as="sourcePoint" />
            <mxPoint x="202" y="528" as="targetPoint" />
            <Array as="points">
              <mxPoint x="142" y="517" />
              <mxPoint x="202" y="517" />
            </Array>
          </mxGeometry>
        </mxCell>
        <mxCell id="oxXZtqg8ceAaz0zIzIaw-132" style="edgeStyle=orthogonalEdgeStyle;rounded=0;orthogonalLoop=1;jettySize=auto;html=1;entryX=0.5;entryY=0;entryDx=0;entryDy=0;" edge="1" parent="1">
          <mxGeometry relative="1" as="geometry">
            <mxPoint x="262" y="528" as="sourcePoint" />
            <mxPoint x="322" y="528" as="targetPoint" />
            <Array as="points">
              <mxPoint x="262" y="517" />
              <mxPoint x="322" y="517" />
            </Array>
          </mxGeometry>
        </mxCell>
        <mxCell id="oxXZtqg8ceAaz0zIzIaw-133" style="edgeStyle=orthogonalEdgeStyle;rounded=0;orthogonalLoop=1;jettySize=auto;html=1;entryX=0.5;entryY=1;entryDx=0;entryDy=0;" edge="1" parent="1">
          <mxGeometry relative="1" as="geometry">
            <mxPoint x="202" y="548" as="sourcePoint" />
            <mxPoint x="262" y="548" as="targetPoint" />
            <Array as="points">
              <mxPoint x="202" y="561" />
              <mxPoint x="262" y="561" />
            </Array>
          </mxGeometry>
        </mxCell>
        <mxCell id="oxXZtqg8ceAaz0zIzIaw-134" style="edgeStyle=orthogonalEdgeStyle;rounded=0;orthogonalLoop=1;jettySize=auto;html=1;entryX=0.5;entryY=1;entryDx=0;entryDy=0;" edge="1" parent="1">
          <mxGeometry relative="1" as="geometry">
            <mxPoint x="323" y="548" as="sourcePoint" />
            <mxPoint x="383" y="548" as="targetPoint" />
            <Array as="points">
              <mxPoint x="323" y="561" />
              <mxPoint x="383" y="561" />
            </Array>
          </mxGeometry>
        </mxCell>
      </root>
    </mxGraphModel>
  </diagram>
</mxfile>
